HIERARCHY
ROOT SpineBase
{
  OFFSET 0.000000 0.000000 0.000000
  CHANNELS 6 Xposition Yposition Zposition Zrotation Xrotation Yrotation
  JOINT SpineMid
  {
    OFFSET 0.000000 30.216419 0.000000
    CHANNELS 3 Zrotation Xrotation Yrotation
    JOINT SpineShoulder
    {
      OFFSET 0.156636 22.371857 -0.732930
      CHANNELS 3 Zrotation Xrotation Yrotation
      JOINT Neck
      {
        OFFSET 0.144766 7.384516 -0.616150
        CHANNELS 3 Zrotation Xrotation Yrotation
        JOINT Head
        {
          OFFSET 5.138184 12.093762 4.274361
          CHANNELS 3 Zrotation Xrotation Yrotation
          End Site
          {
            OFFSET 0 0 0
          }
        }
      }
      JOINT ShoulderLeft
      {
        OFFSET -7.966478 -2.731393 -15.171902
        CHANNELS 3 Zrotation Xrotation Yrotation
        JOINT ElbowLeft
        {
          OFFSET -5.826057 -24.188215 -7.877229
          CHANNELS 3 Zrotation Xrotation Yrotation
          JOINT WristLeft
          {
            OFFSET 2.686996 -23.582514 -6.382604
            CHANNELS 3 Zrotation Xrotation Yrotation
            JOINT HandLeft
            {
              OFFSET 0.797198 -7.273394 0.797882
              CHANNELS 3 Zrotation Xrotation Yrotation
              JOINT HandTipLeft
              {
                OFFSET 3.045204 -6.823568 1.088323
                CHANNELS 3 Zrotation Xrotation Yrotation
                End Site
                {
                  OFFSET 0 0 0
                }
              }
              JOINT ThumbLeft
              {
                OFFSET 4.530647 2.610113 3.008378
                CHANNELS 3 Zrotation Xrotation Yrotation
                End Site
                {
                  OFFSET 0 0 0
                }
              }
            }
          }
        }
      }
      JOINT ShoulderRight
      {
        OFFSET 9.187724 -6.309776 14.366650
        CHANNELS 3 Zrotation Xrotation Yrotation
        JOINT ElbowRight
        {
          OFFSET 7.384180 -21.488278 3.681057
          CHANNELS 3 Zrotation Xrotation Yrotation
          JOINT WristRight
          {
            OFFSET 11.882096 24.917506 -13.276176
            CHANNELS 3 Zrotation Xrotation Yrotation
            JOINT HandRight
            {
              OFFSET 4.409664 6.154355 -4.085688
              CHANNELS 3 Zrotation Xrotation Yrotation
              JOINT HandTipRight
              {
                OFFSET 2.630728 5.705287 -6.058797
                CHANNELS 3 Zrotation Xrotation Yrotation
                End Site
                {
                  OFFSET 0 0 0
                }
              }
              JOINT ThumbRight
              {
                OFFSET 4.863633 -1.724628 -3.429342
                CHANNELS 3 Zrotation Xrotation Yrotation
                End Site
                {
                  OFFSET 0 0 0
                }
              }
            }
          }
        }
      }
    }
  }
  JOINT HipLeft
  {
    OFFSET -2.523155 1.847364 -10.196450
    CHANNELS 3 Zrotation Xrotation Yrotation
    JOINT KneeLeft
    {
      OFFSET -11.008038 -38.333018 -0.181949
      CHANNELS 3 Zrotation Xrotation Yrotation
      JOINT AnkleLeft
      {
        OFFSET -11.059405 -37.956663 9.415687
        CHANNELS 3 Zrotation Xrotation Yrotation
        JOINT FootLeft
        {
          OFFSET 2.041628 -6.902539 -2.916193
          CHANNELS 3 Zrotation Xrotation Yrotation
          End Site
          {
            OFFSET 0 0 0
          }
        }
      }
    }
  }
  JOINT HipRight
  {
    OFFSET 4.431532 -0.401134 3.338786
    CHANNELS 3 Zrotation Xrotation Yrotation
    JOINT KneeRight
    {
      OFFSET -2.115574 -39.060521 6.483571
      CHANNELS 3 Zrotation Xrotation Yrotation
      JOINT AnkleRight
      {
        OFFSET -4.667292 -35.949205 11.597409
        CHANNELS 3 Zrotation Xrotation Yrotation
        JOINT FootRight
        {
          OFFSET 3.585006 -7.157827 -1.625630
          CHANNELS 3 Zrotation Xrotation Yrotation
          End Site
          {
            OFFSET 0 0 0
          }
        }
      }
    }
  }
}
MOTION
Frames: 14
Frame Time: 0.033333
-85.456557 83.135998 322.425583 -0.000000 0.000000 -62.804956 0.000000 0.000000 62.804956 -0.000000 0.000000 0.000000 -0.000000 0.000000 0.000000 0.000000 0.000000 0.000000 -0.000000 0.000000 0.000000 -0.000000 0.000000 0.000000 -0.000000 0.000000 0.000000 -0.000000 0.000000 0.000000 0.000000 0.000000 0.000000 0.000000 0.000000 0.000000 -0.000000 0.000000 0.000000 -0.000000 0.000000 0.000000 -0.000000 0.000000 0.000000 -0.000000 0.000000 0.000000 0.000000 0.000000 0.000000 0.000000 0.000000 0.000000 0.000000 0.000000 62.804956 -0.000000 0.000000 0.000000 -0.000000 0.000000 0.000000 0.000000 0.000000 0.000000 0.000000 0.000000 62.804956 -0.000000 0.000000 0.000000 -0.000000 0.000000 0.000000 0.000000 0.000000 0.000000
-85.428387 83.084164 322.653848 0.200142 -0.516453 -61.950196 -0.549904 0.066218 61.951415 -0.000000 0.000000 0.000000 -0.197080 -1.486842 0.701532 0.000000 0.000000 0.000000 0.739161 -0.633006 -0.084452 -0.012738 0.082413 -0.171440 -1.201151 1.542594 0.329755 -0.556250 -2.420177 -0.884232 0.000000 0.000000 0.000000 0.000000 0.000000 0.000000 -3.924937 -1.615822 -1.295358 -10.006792 -5.954857 -2.965926 5.257861 10.189102 -2.927293 0.768989 -11.878672 1.783204 0.000000 0.000000 0.000000 0.000000 0.000000 0.000000 -0.549904 0.066218 61.951415 -0.000000 0.000000 0.000000 0.945275 0.101820 -0.369053 0.000000 0.000000 0.000000 -0.549904 0.066218 61.951415 -0.000000 0.000000 0.000000 9.563068 11.030763 2.292735 0.000000 0.000000 0.000000
-85.419576 83.030923 322.842407 0.353005 -0.976011 -61.097557 0.185110 -0.014695 61.122541 0.074075 -0.085127 0.043642 -0.820882 -1.510939 1.224673 0.000000 0.000000 0.000000 0.805912 0.029775 -0.213543 -0.063534 0.130365 -0.322058 -2.312428 2.538616 0.553284 -1.135949 -3.635538 -1.445844 0.000000 0.000000 0.000000 0.000000 0.000000 0.000000 -7.607485 -1.635543 -2.330562 -40.578311 -17.771012 -16.827042 11.111181 29.634663 -4.013534 13.383610 -27.744018 4.895858 0.000000 0.000000 0.000000 0.000000 0.000000 0.000000 -1.025057 0.162659 61.102018 -0.000000 0.000000 0.000000 1.731239 0.212414 -0.668336 0.000000 0.000000 0.000000 -1.025057 0.162659 61.102018 -0.000000 0.000000 0.000000 16.373620 18.987435 2.789239 0.000000 0.000000 0.000000
-85.430125 82.976275 322.991261 0.458869 -1.379103 -60.257085 0.258783 -0.030289 60.292105 0.088753 -0.099360 0.057407 -1.015208 -2.040636 1.665104 0.000000 0.000000 0.000000 1.063652 0.017603 -0.254167 -0.154370 0.145556 -0.449875 -3.325206 2.911170 0.652090 -1.745788 -3.685756 -1.690443 0.000000 0.000000 0.000000 0.000000 0.000000 0.000000 -10.295879 -2.121258 -3.164575 -84.709295 -19.362205 -41.516951 -10.837678 31.887833 9.378498 48.125780 -23.391731 1.676295 0.000000 0.000000 0.000000 0.000000 0.000000 0.000000 -2.222243 0.502749 60.043056 -0.321351 -0.210582 -0.077913 2.888388 -0.240102 -0.567794 0.000000 0.000000 0.000000 -1.425077 0.285685 60.266161 -0.000000 0.000000 0.000000 20.637558 23.759484 2.586247 0.000000 0.000000 0.000000
-85.460032 82.920219 323.100409 0.517973 -1.726148 -59.438795 0.319797 -0.050589 59.481349 0.089023 -0.095877 0.066047 -1.074184 -2.413294 1.987674 0.000000 0.000000 0.000000 1.226719 -0.010111 -0.248736 -0.287464 0.129671 -0.553396 -4.230671 2.596908 0.604679 -2.418981 -2.568344 -1.590601 0.000000 0.000000 0.000000 0.000000 0.000000 0.000000 -12.373399 -2.476300 -3.819551 -105.712200 -14.286427 -52.831663 -5.298026 2.774610 1.944675 42.972597 1.050382 -24.052157 0.000000 0.000000 0.000000 0.000000 0.000000 0.000000 -2.722247 0.734224 59.179675 -0.372861 -0.298263 -0.074642 3.434903 -0.202275 -0.666468 0.000000 0.000000 0.000000 -1.749763 0.431497 59.453187 -0.000000 0.000000 0.000000 22.657238 25.869968 2.338245 0.000000 0.000000 0.000000
-85.509299 82.862757 323.169852 0.530516 -2.017538 -58.652415 0.368133 -0.074976 58.699519 0.075119 -0.075337 0.069743 -1.002820 -2.626535 2.190868 0.000000 0.000000 0.000000 1.297192 -0.052507 -0.196596 -0.465272 0.084344 -0.631568 -5.020645 1.554506 0.388117 -3.221744 -0.264513 -1.087906 0.000000 0.000000 0.000000 0.000000 0.000000 0.000000 -13.919283 -2.745419 -4.324848 -114.612742 -11.666299 -57.634628 22.055204 -24.363284 -6.674897 12.876551 28.539701 -28.385782 0.000000 0.000000 0.000000 0.000000 0.000000 0.000000 -3.101140 0.987200 58.360039 -0.395115 -0.395808 -0.055456 3.771521 -0.103075 -0.724793 0.000000 0.000000 0.000000 -1.999102 0.596262 58.672159 -0.000000 0.000000 0.000000 22.612239 25.675559 2.304610 0.000000 0.000000 0.000000
-85.568424 82.818497 323.186153 0.528882 -2.259179 -57.977943 0.352796 -0.118998 58.027183 0.049612 0.049016 0.065800 -0.712106 -2.758660 2.229109 0.000000 0.000000 0.000000 1.302068 -0.203670 -0.103828 -0.704455 0.061652 -0.665450 -6.365108 -0.707569 -0.156412 -3.250636 4.128113 0.356186 0.000000 0.000000 0.000000 0.000000 0.000000 0.000000 -14.922951 -3.031106 -4.697918 -123.371679 -11.401862 -63.796874 74.287975 -41.931476 -0.987255 -45.968894 30.213470 -4.587526 0.000000 0.000000 0.000000 0.000000 0.000000 0.000000 -3.269226 1.238469 57.686418 -0.490076 -0.414516 -0.053415 3.682986 0.027903 -0.642971 0.000000 0.000000 0.000000 -2.196012 0.749177 58.002730 -0.000000 0.000000 0.000000 19.766419 22.086878 2.448014 0.000000 0.000000 0.000000
-85.629541 82.779899 323.202555 0.478215 -2.438360 -57.100730 0.345726 -0.146820 57.148933 0.005432 0.077117 0.061169 -0.351690 -2.508645 2.107793 0.000000 0.000000 0.000000 1.161864 -0.248655 0.039027 -0.912878 0.121512 -0.683965 -7.273953 -4.843413 -1.100902 -4.727858 10.648752 2.603321 0.000000 0.000000 0.000000 0.000000 0.000000 0.000000 -15.365052 -3.139464 -4.891295 -130.166992 -13.463919 -70.311839 102.557616 -34.637022 -3.831085 -54.492876 0.134983 -7.733959 0.000000 0.000000 0.000000 0.000000 0.000000 0.000000 -3.454346 1.524793 56.784172 -0.449521 -0.602776 0.019291 3.415875 0.212151 -0.575013 0.000000 0.000000 0.000000 -2.307292 0.922505 57.129485 -0.000000 0.000000 0.000000 9.952346 10.003137 1.771074 0.000000 0.000000 0.000000
-85.737700 82.727191 323.148431 0.344356 -2.567386 -56.548983 0.414125 -0.204084 56.591848 -0.081841 0.123516 0.050930 0.151387 -2.283341 1.995243 0.000000 0.000000 0.000000 0.857292 -0.115188 0.242677 -1.241043 -0.169138 -0.663516 -6.914801 -5.093613 -1.442109 -8.369192 12.871273 3.915901 0.000000 0.000000 0.000000 0.000000 0.000000 0.000000 -15.574409 -3.245401 -5.055252 -137.056829 -15.963792 -77.738940 106.504707 -22.611220 -17.223597 -60.061763 2.029070 -10.438910 0.000000 0.000000 0.000000 0.000000 0.000000 0.000000 -3.534671 1.818034 56.213719 0.094900 -1.382994 0.397982 2.454159 1.170805 -0.708209 0.000000 0.000000 0.000000 -1.672929 0.422480 56.584165 0.225456 0.938524 -0.015279 0.356966 -1.116881 -0.637411 0.000000 0.000000 0.000000
-85.912129 82.624911 323.032116 0.086786 -2.608199 -56.125645 0.483835 -0.226076 56.154574 -0.162178 0.166380 0.035601 0.680119 -1.857066 1.774723 0.000000 0.000000 0.000000 0.727960 -0.302264 0.479073 -1.744309 -0.500736 -0.670359 -7.734203 -7.148431 -2.290737 -11.715795 17.607588 6.813767 0.000000 0.000000 0.000000 0.000000 0.000000 0.000000 -15.732718 -3.495379 -5.269195 -134.644825 -16.023240 -75.725624 115.310767 -18.407787 -18.014231 -48.416934 6.563657 -13.517933 0.000000 0.000000 0.000000 0.000000 0.000000 0.000000 -3.353661 2.112563 55.800637 0.035741 -1.352906 0.388838 2.757169 1.587369 -0.724334 0.000000 0.000000 0.000000 -1.189245 0.719540 56.205023 -0.019929 1.219809 -0.069287 -0.399841 -1.737552 -0.789663 0.000000 0.000000 0.000000
-86.143039 82.462421 322.905073 -0.274471 -2.616552 -55.885770 0.528240 -0.162967 55.893615 -0.215486 0.165447 0.019029 1.061190 -1.291210 1.530202 0.000000 0.000000 0.000000 0.587001 -0.433275 0.700205 -2.490700 -1.153349 -0.616308 -8.325391 -9.705501 -3.373707 -17.260225 21.971198 10.557921 0.000000 0.000000 0.000000 0.000000 0.000000 0.000000 -15.745050 -3.554240 -5.350485 -131.851893 -15.116185 -72.967673 117.126817 -16.238600 -16.293460 -38.754987 14.899103 -16.105669 0.000000 0.000000 0.000000 0.000000 0.000000 0.000000 -3.009884 2.380252 55.597324 -0.002508 -1.209580 0.347366 3.381255 2.737606 -0.686928 0.000000 0.000000 0.000000 -0.466596 1.099414 56.020771 -0.370131 1.614510 -0.143984 6.637412 7.006700 1.531878 0.000000 0.000000 0.000000
-86.395681 82.270067 322.759790 -0.671738 -2.560629 -55.888172 0.561214 -0.049502 55.872751 -0.254194 0.159464 0.001680 1.449397 -0.791350 1.268635 0.000000 0.000000 0.000000 0.523428 -0.610080 0.878152 -3.131376 -1.908984 -0.596780 -9.079075 -11.368395 -4.266045 -21.631658 23.560635 12.912828 0.000000 0.000000 0.000000 0.000000 0.000000 0.000000 -15.475914 -3.660441 -5.374297 -131.414190 -14.956652 -72.521709 114.960536 -16.356196 -15.507244 -33.590545 16.477945 -16.909442 0.000000 0.000000 0.000000 0.000000 0.000000 0.000000 -2.569352 2.642264 55.635613 -0.070868 -1.047951 0.300594 3.827736 2.766905 -0.874097 0.000000 0.000000 0.000000 0.400859 1.458910 56.077002 -0.753220 2.076666 -0.224458 14.345855 16.941440 2.848029 0.000000 0.000000 0.000000
-86.647157 82.074657 322.622653 -1.066477 -2.481555 -56.090638 0.630301 0.043169 56.052923 -0.295361 0.124689 -0.015098 1.757964 -0.181313 1.008268 0.000000 0.000000 0.000000 0.635158 -0.559390 0.949166 -3.738255 -2.942931 -0.569313 -8.767929 -10.685003 -4.378321 -23.824814 21.824971 12.113748 0.000000 0.000000 0.000000 0.000000 0.000000 0.000000 -15.262414 -3.665797 -5.370190 -131.313405 -14.917720 -72.532353 115.643763 -18.120088 -14.618154 -42.619191 12.373334 -14.837172 0.000000 0.000000 0.000000 0.000000 0.000000 0.000000 -2.115911 2.900216 55.869001 -0.157042 -0.892351 0.255691 4.157014 2.173921 -1.170864 0.000000 0.000000 0.000000 1.286322 1.762309 56.322740 -1.101319 2.569955 -0.298277 18.028570 21.229093 2.869652 0.000000 0.000000 0.000000
-86.865697 81.902227 322.502878 -1.401365 -2.427323 -56.517611 0.681713 0.111670 56.461173 -0.320373 0.103667 -0.029532 2.081446 0.382647 0.749391 0.000000 0.000000 0.000000 0.879079 -0.427280 0.939666 -4.196947 -4.052737 -0.570670 -9.041661 -7.052811 -3.741029 -23.795073 17.875373 9.135996 0.000000 0.000000 0.000000 0.000000 0.000000 0.000000 -15.057912 -3.714453 -5.386153 -131.598881 -17.422681 -74.360485 114.953229 -17.023586 -16.571915 -46.952565 7.681587 -14.112963 0.000000 0.000000 0.000000 0.000000 0.000000 0.000000 -1.752418 3.153985 56.316491 -0.260109 -0.774673 0.221804 4.585401 1.305336 -1.578052 0.000000 0.000000 0.000000 1.982936 1.984823 56.772882 -1.331565 2.991321 -0.349610 20.438027 23.430145 2.572240 0.000000 0.000000 0.000000
